<svg width="101" height="25" viewBox="0 0 101 25" fill="none" xmlns="http://www.w3.org/2000/svg">
<path d="M29.7252 24.9995H20.7516L15.3043 15.5015H24.2748L29.7252 24.9995Z" fill="#616161"/>
<path d="M15.2674 0L19.7655 7.73488L9.82663 25H0.875519L15.2674 0Z" fill="#616161"/>
<path d="M35.9731 13.5467H31.5265L30.4487 15.5158H28.7627L33.8045 6.43604L38.7466 15.5158H37.0381L35.9731 13.5467ZM32.1829 12.308H35.3425L33.7949 9.30927L32.1829 12.308ZM42.2537 10.9309L39.3065 6.75457H41.1147L43.1707 9.7758L45.2396 6.75457H47.0221L44.0362 10.9405L47.2698 15.5126H45.4616L43.1321 12.1439L40.7769 15.5126H38.9558L42.2537 10.9309ZM48.6469 6.75779H50.2203V15.5158H48.6469V6.75779ZM56.7486 8.75264C56.5587 8.44697 56.3303 8.22175 56.0665 8.07696C55.8026 7.93217 55.4712 7.86139 55.0755 7.86139C54.6282 7.86139 54.2904 7.96113 54.0523 8.16383C53.8174 8.36654 53.6984 8.62072 53.6984 8.92638C53.6984 9.43797 54.0748 9.80154 54.8245 10.0171L55.8766 10.326C56.7261 10.5737 57.3535 10.918 57.7524 11.3588C58.1546 11.7996 58.3541 12.3273 58.3541 12.9386C58.3541 13.3279 58.2769 13.6883 58.1257 14.0229C57.9712 14.3575 57.7524 14.6471 57.4693 14.8916C57.1829 15.1362 56.8387 15.326 56.4365 15.4676C56.0311 15.6091 55.5806 15.6767 55.0851 15.6767C54.0845 15.6767 53.2962 15.4547 52.7203 15.0075C52.1411 14.5602 51.7936 13.9167 51.681 13.0737L53.2158 12.7874C53.3058 13.3408 53.5118 13.7526 53.8303 14.0197C54.1488 14.2867 54.5671 14.4219 55.0884 14.4219C55.6257 14.4219 56.0375 14.2932 56.3271 14.0326C56.6167 13.7719 56.7615 13.4373 56.7615 13.0223C56.7615 12.8003 56.7228 12.6104 56.6488 12.4528C56.5748 12.2951 56.4687 12.1568 56.3335 12.0377C56.1984 11.9187 56.0375 11.8157 55.8509 11.7353C55.6643 11.6516 55.4648 11.5776 55.2492 11.5133L54.2325 11.2172C53.5053 11.0017 52.968 10.7024 52.6205 10.3196C52.273 9.93668 52.0993 9.47014 52.0993 8.92638C52.0993 8.58855 52.1701 8.27645 52.3084 7.99009C52.45 7.70373 52.6495 7.46242 52.9101 7.25972C53.1707 7.05701 53.4796 6.89935 53.84 6.78352C54.2003 6.66769 54.6025 6.60978 55.0465 6.60978C55.8059 6.60978 56.4268 6.74813 56.9062 7.02484C57.3857 7.30154 57.7428 7.67477 57.9841 8.14453L56.7486 8.75264Z" fill="#616161"/>
<path d="M64.3282 6.75779H66.4356C67.5006 6.75779 68.3018 6.97658 68.8391 7.41416C69.3764 7.85174 69.6435 8.43411 69.6435 9.16126C69.6435 9.47658 69.5598 9.78224 69.3893 10.0847C69.2188 10.3871 68.9903 10.6317 68.7008 10.8215C69.2574 10.9856 69.7078 11.2623 70.0489 11.6452C70.39 12.0281 70.5605 12.4817 70.5605 13.003C70.5605 13.3344 70.4929 13.6529 70.3642 13.9553C70.2323 14.261 70.0232 14.5281 69.74 14.7597C69.4569 14.9914 69.0901 15.1748 68.6461 15.3099C68.202 15.445 67.6647 15.5158 67.0373 15.5158H64.3282V6.75779ZM66.5225 10.4997C67.0437 10.4997 67.4363 10.3871 67.7065 10.1651C67.9736 9.94311 68.1087 9.63102 68.1087 9.23526C68.1087 8.83951 67.9736 8.53063 67.7065 8.30541C67.4395 8.0834 67.047 7.97078 66.5354 7.97078H65.9047V10.4965H66.5225V10.4997ZM67.0791 14.2514C67.6583 14.2514 68.1184 14.1452 68.4659 13.9296C68.8134 13.714 68.9871 13.3891 68.9871 12.9515C68.9871 12.5042 68.8134 12.1761 68.4659 11.9669C68.1184 11.7578 67.6551 11.6516 67.0791 11.6516H65.9015V14.2546H67.0791V14.2514ZM77.832 13.5467H73.3855L72.3076 15.5158H70.6216L75.6634 6.43604L80.6055 15.5158H78.897L77.832 13.5467ZM74.0418 12.308H77.2014L75.6538 9.30927L74.0418 12.308ZM83.4305 9.71789V15.5158H81.8571V6.51004L89.3636 12.604V6.75779H90.937V15.8151L83.4305 9.71789ZM93.0187 6.75779H94.592V10.2745L98.6171 6.75779H100.625L96.0045 10.7346L100.75 15.5158H98.6686L94.9009 11.6741L94.592 11.9476V15.5158H93.0187V6.75779Z" fill="#616161"/>
</svg>
