<svg width="291" height="70" viewBox="0 0 291 70" fill="none" xmlns="http://www.w3.org/2000/svg">
<path d="M40.2788 0.394165C44.3751 7.43108 48.5068 14.4473 52.5587 21.5108C46.0095 33.0637 39.5548 44.6726 32.7838 56.0984C30.186 60.4843 27.6591 64.9115 25.0908 69.3122C16.7624 69.3624 8.43392 69.3595 0.105469 69.3477C0.359637 68.7773 0.61085 68.2039 0.918216 67.6601C14.0315 45.2342 27.1951 22.8378 40.2788 0.394165Z" fill="#AE285D"/>
<path d="M221.506 17.6924C226.11 26.275 230.712 34.8547 235.311 43.4402C233.688 43.4727 232.066 43.39 230.446 43.4461C229.358 41.5547 228.416 39.5834 227.352 37.6801C223.261 37.5589 219.168 37.6416 215.075 37.6328C214.088 39.5922 213.012 41.5015 211.966 43.4254C210.367 43.4107 208.768 43.458 207.172 43.4432C211.883 34.8221 216.609 26.207 221.506 17.6924ZM217.123 33.9621C219.913 34.0005 222.706 33.9946 225.499 34.0183C224.101 31.4175 222.842 28.7428 221.343 26.1982C219.907 28.7723 218.5 31.3584 217.123 33.9621Z" fill="#AE285D"/>
<path d="M237.991 17.5919C244.942 23.6329 251.894 29.6767 258.759 35.8182C258.948 30.2767 258.735 24.7352 258.904 19.1938C260.39 19.2233 261.877 19.247 263.364 19.2736C263.316 27.8089 263.34 36.3472 263.331 44.8825C258.765 41.0848 254.379 37.0742 249.869 33.2055C247.36 31.0599 244.874 28.8906 242.477 26.6238C242.418 32.2362 242.504 37.8515 242.383 43.4639C240.905 43.4698 239.427 43.4314 237.953 43.4432C237.965 34.8251 237.891 26.21 237.991 17.5919Z" fill="#AE285D"/>
<path d="M91.0742 43.4077C95.8768 34.8339 100.555 26.1922 105.467 17.6835C110.042 26.275 114.644 34.8546 119.272 43.4165C117.626 43.455 115.983 43.452 114.337 43.4195C113.338 41.5014 112.315 39.5951 111.36 37.6534C107.255 37.6002 103.153 37.6446 99.048 37.6446C97.9781 39.5804 97.0117 41.5783 95.8561 43.4668C94.2602 43.4224 92.6672 43.455 91.0742 43.4077ZM101.043 33.9857C103.848 33.9739 106.655 34.0123 109.463 34.0034C108.05 31.4174 106.809 28.7398 105.293 26.2099C103.865 28.7989 102.456 31.3908 101.043 33.9857Z" fill="#AE285D"/>
<path d="M159.418 19.9061C161.765 18.7505 164.513 18.5998 167.052 19.1111C169.251 19.5751 171.018 21.1385 172.36 22.8704C171.169 23.4733 169.987 24.0851 168.816 24.7264C167.238 22.2586 163.482 21.4725 161.191 23.3964C159.977 24.2654 160.074 26.4051 161.446 27.0671C164.519 28.7606 168.258 29.1241 170.983 31.4678C173.761 33.8233 173.655 38.5313 171.08 41.002C168.317 43.8038 163.94 44.4126 160.266 43.3634C157.19 42.5862 154.876 39.7578 154.465 36.6487C155.951 36.3236 157.453 36.0546 158.957 35.8211C159.137 37.2782 159.69 38.883 161.064 39.6159C163.24 40.7833 166.393 40.4907 167.894 38.3835C168.952 36.9501 168.639 34.7483 167.194 33.6991C164.173 31.6747 160.163 31.5505 157.453 29C156.022 27.7823 155.428 25.749 155.916 23.9432C156.303 22.102 157.807 20.7395 159.418 19.9061Z" fill="#AE285D"/>
<path d="M120.708 19.3622C122.396 19.1406 124.101 19.2174 125.797 19.2352C127.612 21.9364 129.424 24.6377 131.241 27.336C133.153 24.6702 135.012 21.966 136.898 19.2824C138.639 19.2263 140.379 19.1967 142.12 19.2499C139.36 23.0891 136.582 26.9193 133.815 30.7555C136.632 35.0261 139.706 39.1283 142.457 43.4432C140.799 43.4521 139.141 43.4373 137.483 43.4225C135.373 40.3873 133.277 37.3402 131.167 34.305C128.986 37.352 126.787 40.3843 124.633 43.4491C122.954 43.4816 121.272 43.458 119.594 43.461C122.514 39.1815 125.587 35.0113 128.623 30.8116C126.013 26.9755 123.353 23.1748 120.708 19.3622Z" fill="#AE285D"/>
<path d="M146.213 19.2558C147.708 19.2115 149.2 19.2144 150.696 19.247C150.705 27.3124 150.699 35.3778 150.699 43.4432C149.18 43.4461 147.664 43.4432 146.145 43.4432C146.201 35.3807 146.174 27.3183 146.213 19.2558Z" fill="#AE285D"/>
<path d="M189.846 19.2352C193.682 19.4007 197.82 18.7062 201.354 20.5859C204.801 22.4301 205.596 27.9006 202.418 30.3773C204.419 31.1664 206.355 32.653 206.881 34.8429C207.723 37.5294 206.237 40.5026 203.887 41.8946C199.605 44.2472 194.56 43.1507 189.911 43.4699C189.766 35.3927 189.858 27.3154 189.846 19.2352ZM194.297 22.7167C194.306 25.022 194.3 27.3243 194.285 29.6266C195.952 29.5586 197.799 29.6591 199.221 28.6306C200.672 27.3391 200.619 24.6644 199.017 23.5147C197.616 22.6281 195.887 22.7286 194.297 22.7167ZM194.323 32.7919C194.306 35.1414 194.315 37.494 194.359 39.8436C196.596 39.7253 199.005 40.1391 201.068 39.0308C202.897 38.1323 203.234 35.1946 201.535 33.9947C199.487 32.4047 196.738 32.8421 194.323 32.7919Z" fill="#AE285D"/>
<path d="M268.533 19.2352C270.022 19.2233 271.512 19.2293 273.004 19.2322C273.01 22.4182 272.975 25.6071 273.043 28.796C276.713 25.5657 280.455 22.4182 284.146 19.2145C286.185 19.2263 288.225 19.2352 290.264 19.2293C285.86 22.8408 281.492 26.4908 277.165 30.191C281.421 34.6833 285.831 39.0248 290.184 43.4225C288.163 43.4018 286.138 43.5614 284.126 43.328C280.662 39.7932 277.222 36.2378 273.79 32.6736C273.539 33.0046 273.291 33.3356 273.046 33.6666C272.957 36.9265 273.037 40.1834 272.981 43.4432C271.482 43.4344 269.984 43.4728 268.488 43.4639C268.5 35.3896 268.521 27.3124 268.533 19.2352Z" fill="#AE285D"/>
<path d="M40.2812 43.2954C48.6393 43.2924 56.9973 43.2333 65.3553 43.3722C70.3322 52.0494 75.4688 60.632 80.4014 69.3329C72.0434 69.3742 63.6884 69.3417 55.3304 69.3358C50.3564 60.6291 45.1607 52.0553 40.2812 43.2954Z" fill="#AE285D"/>
</svg>
