<svg width="252" height="42" viewBox="0 0 252 42" fill="none" xmlns="http://www.w3.org/2000/svg">
<path d="M38.9595 16.1414C39.0128 15.8658 39.2863 15.6432 39.5669 15.6432H47.3884C47.669 15.6432 47.8573 15.8693 47.8005 16.1414L44.3799 33.6327C44.3266 33.9083 44.0531 34.1309 43.7725 34.1309H35.951C35.6704 34.1309 35.4395 34.1309 35.4395 34.1309C35.4395 34.1309 35.2086 34.1309 34.928 34.1309H25.0783C24.7977 34.1309 24.3892 33.986 24.1726 33.8094L13.6515 25.2086C13.4349 25.0319 13.4455 24.7563 13.6764 24.5973L26.357 15.9294C26.5879 15.7704 27.0071 15.6396 27.2912 15.6396H37.1587C37.4393 15.6396 37.4819 15.7704 37.2475 15.9259L24.7871 24.4418C24.5562 24.6008 24.542 24.8764 24.7622 25.0531L35.1021 33.5055C35.3187 33.6822 35.5425 33.6044 35.5958 33.3288L38.956 16.1379L38.9595 16.1414ZM45.211 7C42.6358 7 40.1743 8.7562 39.7516 10.9258C39.2899 13.0954 41.0588 14.8516 43.634 14.8516C46.2092 14.8516 48.6352 13.0954 49.0969 10.9258C49.5196 8.7562 47.7898 7 45.211 7ZM81.7185 15.6432C81.4379 15.6432 81.0862 15.8375 80.9406 16.0778L75.705 24.6432C75.5593 24.8835 75.3746 24.8588 75.2965 24.5902L72.8136 16.1308C72.7355 15.8622 72.4407 15.6432 72.1601 15.6432H68.0682C67.7875 15.6432 67.4252 15.8304 67.2654 16.0601L61.2696 24.6574C61.1098 24.887 60.9286 24.8517 60.8718 24.5796L59.0496 16.1379C58.9892 15.8658 58.7122 15.6396 58.4316 15.6396H50.1093C49.8286 15.6396 49.6581 15.8587 49.7327 16.1308L54.5777 33.6397C54.6523 33.9083 54.9435 34.1309 55.2241 34.1309H61.7385C62.0191 34.1309 62.3885 33.9472 62.559 33.7246L67.6313 27.0955C67.8018 26.8729 68.0184 26.9047 68.1179 27.1697L70.4977 33.6503C70.5936 33.9118 70.9026 34.1274 71.1833 34.1274H77.6976C77.9782 34.1274 78.337 33.9366 78.4933 33.7034L90.2362 16.0601C90.3925 15.8269 90.2895 15.6361 90.0088 15.6361H81.7256L81.7185 15.6432ZM98.0541 7C95.4789 7 93.0174 8.7562 92.5912 10.9258C92.1294 13.0954 93.8983 14.8516 96.477 14.8516C99.0558 14.8516 101.478 13.0954 101.936 10.9258C102.359 8.7562 100.629 7 98.0541 7ZM88.382 33.6362C88.3288 33.9118 88.5135 34.1345 88.7941 34.1345H96.6156C96.8962 34.1345 97.1697 33.9083 97.2265 33.6362L100.647 16.1449C100.7 15.8693 100.516 15.6467 100.235 15.6467H92.4136C92.1329 15.6467 91.8594 15.8728 91.8062 16.1449L88.3856 33.6362H88.382ZM10.9165 34.1345C11.1971 34.1345 11.4706 33.9083 11.5274 33.6362L13.1543 25.3959C13.2075 25.1203 13.0619 25.0249 12.831 25.1839L0.150398 33.8447C-0.0804819 34.0037 -0.0414099 34.1309 0.239198 34.1309H10.9165V34.1345ZM8.40524 7.03534C8.12463 7.03534 7.85113 7.26149 7.7943 7.53357L5.70572 18.1273C5.65244 18.4029 5.78387 18.7704 6.00054 18.9506L12.8594 24.5584C13.0761 24.7351 13.2999 24.6574 13.3532 24.3817L16.6743 7.53711C16.7276 7.26149 16.5429 7.03887 16.2623 7.03887H8.40524V7.03534Z" fill="#81D829"/>
<rect x="112" width="140" height="41.4815" rx="10.3704" fill="black"/>
<path d="M148.793 26.2727C148.793 27.2449 147.984 28.0319 146.991 28.0319C146.459 28.0319 145.958 27.7272 145.717 27.2565L144.818 25.4934C143.02 21.9556 140.244 16.5081 138.703 13.4642C137.717 11.5506 135.753 10.3662 133.581 10.3662C130.659 10.3662 128.285 12.6926 128.285 15.5475V31.099H131.42V15.5475C131.42 14.3785 132.39 13.4295 133.585 13.4295C134.551 13.4295 135.458 13.9811 135.895 14.8338C137.646 18.2867 141.254 25.3776 142.922 28.6261C143.694 30.15 145.256 31.099 146.995 31.099C149.715 31.099 151.928 28.9347 151.928 26.2727V10.3662H148.793V26.2727Z" fill="url(#paint0_linear_1_11162)"/>
<path d="M159.529 12.2094C158.331 13.3668 157.645 14.9833 157.645 16.6461V24.825C157.645 26.4955 158.315 28.0735 159.529 29.2617C160.744 30.45 162.352 31.1058 164.064 31.1058H179.942V28.0387H164.064C163.188 28.0387 162.368 27.7031 161.749 27.0858C161.122 26.4878 160.779 25.6854 160.779 24.825V22.0781H177.064V18.9995H160.779V16.6499C160.779 15.7935 161.122 14.991 161.753 14.3853C162.364 13.7719 163.184 13.4362 164.064 13.4362H179.942V10.3691H164.064C162.356 10.3691 160.748 11.025 159.529 12.2094Z" fill="url(#paint1_linear_1_11162)"/>
<path d="M198.024 10.3643H193.056C187.208 10.3643 182.453 15.0131 182.453 20.723C182.453 26.4328 187.208 31.0971 193.056 31.0971H198.024C203.864 31.0971 208.611 26.4444 208.611 20.723C208.611 15.0016 203.86 10.3643 198.024 10.3643ZM205.48 20.7268C205.48 24.7546 202.137 28.0338 198.024 28.0338H193.056C188.935 28.0338 185.588 24.7546 185.588 20.7268C185.588 16.6991 188.939 13.4314 193.056 13.4314H198.024C202.137 13.4314 205.48 16.7029 205.48 20.7268Z" fill="url(#paint2_linear_1_11162)"/>
<path d="M234.828 10.3643V26.2707C234.828 27.243 234.02 28.03 233.026 28.03C232.494 28.03 231.993 27.7252 231.752 27.2545L230.798 25.3834C228.996 21.8456 226.264 16.4753 224.738 13.4622C223.752 11.5487 221.788 10.3643 219.616 10.3643C216.694 10.3643 214.32 12.6906 214.32 15.5455V31.0971H217.455V15.5455C217.455 14.3766 218.425 13.4275 219.62 13.4275C220.586 13.4275 221.493 13.9792 221.93 14.8318C223.673 18.2654 227.277 25.3487 228.957 28.6241C229.73 30.148 231.291 31.0971 233.03 31.0971C235.751 31.0971 237.963 28.9328 237.963 26.2707V10.3643H234.828Z" fill="url(#paint3_linear_1_11162)"/>
<defs>
<linearGradient id="paint0_linear_1_11162" x1="137.896" y1="11.662" x2="137.896" y2="31.0981" gradientUnits="userSpaceOnUse">
<stop stop-color="#A2FF0A"/>
<stop offset="1" stop-color="#FFF85A"/>
</linearGradient>
<linearGradient id="paint1_linear_1_11162" x1="166.708" y1="11.6651" x2="166.708" y2="31.1049" gradientUnits="userSpaceOnUse">
<stop stop-color="#A2FF0A"/>
<stop offset="1" stop-color="#FFF85A"/>
</linearGradient>
<linearGradient id="paint2_linear_1_11162" x1="193.086" y1="11.66" x2="193.086" y2="31.0961" gradientUnits="userSpaceOnUse">
<stop stop-color="#A2FF0A"/>
<stop offset="1" stop-color="#FFF85A"/>
</linearGradient>
<linearGradient id="paint3_linear_1_11162" x1="223.931" y1="11.66" x2="223.931" y2="31.0961" gradientUnits="userSpaceOnUse">
<stop stop-color="#A2FF0A"/>
<stop offset="1" stop-color="#FFF85A"/>
</linearGradient>
</defs>
</svg>
