<svg width="330" height="330" viewBox="0 0 330 330" fill="none" xmlns="http://www.w3.org/2000/svg">
<rect width="330" height="330" rx="165" fill="#DBFF66" fill-opacity="0.5"/>
<g opacity="0.3">
<rect x="183.23" y="63.4062" width="5.72449" height="61.0612" rx="1.20017" fill="#5DF245"/>
<rect x="199.617" y="64.1609" width="5.72449" height="61.0612" rx="1.20017" transform="rotate(11.544 199.617 64.1609)" fill="#5DF245"/>
<rect x="214.812" y="69.1177" width="5.72449" height="61.0612" rx="1.20017" transform="rotate(23.4585 214.812 69.1177)" fill="#5DF245"/>
<rect x="229.93" y="77.522" width="5.72449" height="61.0612" rx="1.20017" transform="rotate(35.0902 229.93 77.522)" fill="#5DF245"/>
<rect x="242.719" y="86.5586" width="5.72449" height="61.0612" rx="1.20017" transform="rotate(44.0483 242.719 86.5586)" fill="#5DF245"/>
<rect x="253.992" y="98.5125" width="5.72449" height="61.0612" rx="1.20017" transform="rotate(55.5923 253.992 98.5125)" fill="#5DF245"/>
<rect x="261.473" y="112.628" width="5.72449" height="61.0612" rx="1.20017" transform="rotate(67.5068 261.473 112.628)" fill="#5DF245"/>
<rect x="266.48" y="129.233" width="5.72449" height="61.0612" rx="1.20017" transform="rotate(79.1386 266.48 129.233)" fill="#5DF245"/>
<rect x="268.434" y="144.838" width="5.72449" height="61.0612" rx="1.20017" transform="rotate(89.9609 268.434 144.838)" fill="#5DF245"/>
<rect x="267.676" y="161.259" width="5.72449" height="61.0612" rx="1.20017" transform="rotate(101.505 267.676 161.259)" fill="#5DF245"/>
<rect x="262.742" y="176.436" width="5.72449" height="61.0612" rx="1.20017" transform="rotate(113.419 262.742 176.436)" fill="#5DF245"/>
<rect x="254.328" y="191.571" width="5.72449" height="61.0612" rx="1.20017" transform="rotate(125.051 254.328 191.571)" fill="#5DF245"/>
<rect x="246.309" y="204.545" width="5.72449" height="61.0612" rx="1.20017" transform="rotate(135.203 246.309 204.545)" fill="#5DF245"/>
<rect x="234.125" y="215.56" width="5.72449" height="61.0612" rx="1.20017" transform="rotate(146.747 234.125 215.56)" fill="#5DF245"/>
<rect x="219.875" y="222.781" width="5.72449" height="61.0612" rx="1.20017" transform="rotate(158.662 219.875 222.781)" fill="#5DF245"/>
<rect x="203.215" y="227.432" width="5.72449" height="61.0612" rx="1.20017" transform="rotate(170.293 203.215 227.432)" fill="#5DF245"/>
<rect x="187.762" y="230.023" width="5.72449" height="61.0612" rx="1.20017" transform="rotate(179.251 187.762 230.023)" fill="#5DF245"/>
<rect x="171.32" y="229.492" width="5.72449" height="61.0612" rx="1.20017" transform="rotate(-169.205 171.32 229.492)" fill="#5DF245"/>
<rect x="156.082" y="224.76" width="5.72449" height="61.0612" rx="1.20017" transform="rotate(-157.29 156.082 224.76)" fill="#5DF245"/>
<rect x="140.879" y="216.519" width="5.72449" height="61.0612" rx="1.20017" transform="rotate(-145.658 140.879 216.519)" fill="#5DF245"/>
<rect x="128.469" y="206.809" width="5.72449" height="61.0612" rx="1.20017" transform="rotate(-134.836 128.469 206.809)" fill="#5DF245"/>
<rect x="117.434" y="194.611" width="5.72449" height="61.0612" rx="1.20017" transform="rotate(-123.292 117.434 194.611)" fill="#5DF245"/>
<rect x="110.242" y="180.393" width="5.72449" height="61.0612" rx="1.20017" transform="rotate(-111.378 110.242 180.393)" fill="#5DF245"/>
<rect x="105.555" y="163.727" width="5.72449" height="61.0612" rx="1.20017" transform="rotate(-99.7458 105.555 163.727)" fill="#5DF245"/>
<rect x="102.641" y="151.223" width="5.72449" height="61.0612" rx="1.20017" transform="rotate(-92.2704 102.641 151.223)" fill="#5DF245"/>
<rect x="103.793" y="135.292" width="5.72449" height="61.0612" rx="1.20017" transform="rotate(-80.356 103.793 135.292)" fill="#5DF245"/>
<rect x="108.375" y="118.625" width="5.72449" height="61.0612" rx="1.20017" transform="rotate(-68.7242 108.375 118.625)" fill="#5DF245"/>
<rect x="115.051" y="104.367" width="5.72449" height="61.0612" rx="1.20017" transform="rotate(-57.9018 115.051 104.367)" fill="#5DF245"/>
<rect x="124.406" y="90.8628" width="5.72449" height="61.0612" rx="1.20017" transform="rotate(-46.3578 124.406 90.8628)" fill="#5DF245"/>
<rect x="136.656" y="80.5818" width="5.72449" height="61.0612" rx="1.20017" transform="rotate(-34.4434 136.656 80.5818)" fill="#5DF245"/>
<rect x="151.832" y="72.2795" width="5.72449" height="61.0612" rx="1.20017" transform="rotate(-22.8116 151.832 72.2795)" fill="#5DF245"/>
<rect x="167.578" y="64.7119" width="5.72449" height="61.0612" rx="1.20017" transform="rotate(-9.29502 167.578 64.7119)" fill="#5DF245"/>
</g>
<rect x="60.5156" y="149.304" width="150.076" height="96.7101" rx="12.5363" fill="#6EDC2B"/>
<rect x="60.5156" y="172.636" width="150.076" height="15.3529" fill="white"/>
<rect x="82.1719" y="219.077" width="28.1443" height="13.0538" rx="6.52691" fill="#1F2D3A"/>
<circle cx="204.439" cy="198.484" r="70.4201" fill="#9F78FF" stroke="#F4F4F4" stroke-width="5.71142"/>
<path d="M145.98 198.49C145.98 210.053 149.409 221.357 155.833 230.971C162.257 240.585 171.388 248.079 182.071 252.504C192.754 256.929 204.509 258.086 215.85 255.831C227.191 253.575 237.608 248.007 245.784 239.83C253.96 231.654 259.529 221.237 261.784 209.896C264.04 198.555 262.882 186.8 258.458 176.117C254.033 165.434 246.539 156.304 236.925 149.88C227.311 143.455 216.007 140.027 204.444 140.027L204.444 198.49L145.98 198.49Z" fill="url(#paint0_radial_4407_7141)"/>
<path d="M206.063 164.69V200.309H172.141" stroke="white" stroke-width="4.75952" stroke-linecap="round"/>
<circle cx="87.8939" cy="115.058" r="5.72204" fill="#B99EFC"/>
<circle cx="260.947" cy="83.0013" r="6.61531" fill="#75FE5F"/>
<path fill-rule="evenodd" clip-rule="evenodd" d="M160.304 97.8736C155.776 96.8459 152.11 93.0543 150.86 88.1099C150.763 87.7349 150.207 87.7488 150.138 88.1377C149.179 93.1376 145.749 97.1514 141.277 98.443C140.902 98.5541 140.916 99.068 141.304 99.1514C145.832 100.179 149.499 103.971 150.749 108.915C150.846 109.29 151.401 109.276 151.471 108.887C152.429 103.887 155.86 99.8736 160.332 98.5819C160.707 98.4708 160.693 97.9569 160.304 97.8736Z" fill="white"/>
<defs>
<radialGradient id="paint0_radial_4407_7141" cx="0" cy="0" r="1" gradientUnits="userSpaceOnUse" gradientTransform="translate(204.445 151.54) rotate(80.0301) scale(101.548)">
<stop stop-color="#F4F4F4" stop-opacity="0.65"/>
<stop offset="1" stop-color="#F4F4F4" stop-opacity="0"/>
</radialGradient>
</defs>
</svg>
