<svg width="330" height="330" viewBox="0 0 330 330" fill="none" xmlns="http://www.w3.org/2000/svg">
<rect width="330" height="330" rx="165" fill="#E6FF98"/>
<g opacity="0.4">
<rect x="141.688" y="62.1348" width="7.21986" height="77.008" rx="1.56538" fill="#D1DF31"/>
<rect width="7.21984" height="77.0081" rx="1.56538" transform="matrix(0.979774 0.200105 -0.200135 0.979768 162.379 63.0693)" fill="#D1DF31"/>
<rect width="7.2198" height="77.0086" rx="1.56538" transform="matrix(0.91736 0.398058 -0.39811 0.917338 181.531 69.334)" fill="#D1DF31"/>
<rect width="7.21974" height="77.0092" rx="1.56538" transform="matrix(0.818269 0.574836 -0.574895 0.818227 200.602 79.9355)" fill="#D1DF31"/>
<rect width="7.21956" height="77.0086" rx="1.56538" transform="matrix(0.718781 0.695237 -0.695292 0.718727 216.719 91.3193)" fill="#D1DF31"/>
<rect width="7.21952" height="77.009" rx="1.56538" transform="matrix(0.565107 0.825018 -0.825058 0.565048 230.938 106.394)" fill="#D1DF31"/>
<rect width="7.21953" height="77.0127" rx="1.56538" transform="matrix(0.382599 0.923914 -0.923935 0.382549 240.359 124.168)" fill="#D1DF31"/>
<rect width="7.21946" height="77.0144" rx="1.56538" transform="matrix(0.188449 0.982083 -0.982089 0.188421 246.697 145.14)" fill="#D1DF31"/>
<rect x="249.154" y="164.838" width="7.21944" height="77.0146" rx="1.56538" transform="rotate(89.9609 249.154 164.838)" fill="#D1DF31"/>
<rect width="7.21946" height="77.0143" rx="1.56538" transform="matrix(-0.199467 0.979905 -0.979911 -0.199437 248.193 185.551)" fill="#D1DF31"/>
<rect width="7.21954" height="77.0126" rx="1.56538" transform="matrix(-0.397484 0.917609 -0.917631 -0.397433 241.98 204.704)" fill="#D1DF31"/>
<rect width="7.21952" height="77.009" rx="1.56538" transform="matrix(-0.574337 0.818619 -0.81866 -0.574278 231.367 223.78)" fill="#D1DF31"/>
<rect width="7.21956" height="77.0087" rx="1.56538" transform="matrix(-0.709635 0.704569 -0.704624 -0.709581 221.238 240.126)" fill="#D1DF31"/>
<rect width="7.21975" height="77.0091" rx="1.56538" transform="matrix(-0.836277 0.548307 -0.548366 -0.836238 205.883 254.029)" fill="#D1DF31"/>
<rect width="7.21981" height="77.0085" rx="1.56538" transform="matrix(-0.931457 0.363853 -0.363902 -0.931437 187.898 263.099)" fill="#D1DF31"/>
<rect width="7.21984" height="77.0081" rx="1.56538" transform="matrix(-0.985686 0.168592 -0.168618 -0.985682 166.898 268.973)" fill="#D1DF31"/>
<rect width="7.21985" height="77.008" rx="1.56538" transform="matrix(-0.999915 0.0130648 -0.0130668 -0.999915 147.418 272.273)" fill="#D1DF31"/>
<rect width="7.21984" height="77.0081" rx="1.56538" transform="matrix(-0.982305 -0.187288 0.187316 -0.9823 126.672 271.598)" fill="#D1DF31"/>
<rect width="7.2198" height="77.0086" rx="1.56538" transform="matrix(-0.922483 -0.386038 0.38609 -0.922461 107.461 265.646)" fill="#D1DF31"/>
<rect width="7.21974" height="77.0092" rx="1.56538" transform="matrix(-0.825709 -0.564096 0.564155 -0.825669 88.2695 255.227)" fill="#D1DF31"/>
<rect width="7.21956" height="77.0086" rx="1.56538" transform="matrix(-0.705108 -0.709101 0.709154 -0.705053 72.6133 242.984)" fill="#D1DF31"/>
<rect width="7.21952" height="77.0091" rx="1.56538" transform="matrix(-0.548937 -0.835864 0.835903 -0.548877 58.6953 227.6)" fill="#D1DF31"/>
<rect width="7.21953" height="77.0128" rx="1.56538" transform="matrix(-0.364521 -0.931195 0.931202 -0.364504 49.6406 209.668)" fill="#D1DF31"/>
<rect width="7.21946" height="77.0144" rx="1.56538" transform="matrix(-0.169278 -0.985568 0.985568 -0.169276 43.7148 188.67)" fill="#D1DF31"/>
<rect width="7.21944" height="77.0146" rx="1.56538" transform="matrix(-0.0396175 -0.999215 0.999215 -0.0396153 40.0352 172.869)" fill="#D1DF31"/>
<rect width="7.21946" height="77.0144" rx="1.56538" transform="matrix(0.167531 -0.985867 0.985868 0.167522 41.4922 152.78)" fill="#D1DF31"/>
<rect width="7.21953" height="77.0128" rx="1.56538" transform="matrix(0.362861 -0.931843 0.931846 0.362854 47.2734 131.783)" fill="#D1DF31"/>
<rect width="7.21951" height="77.0091" rx="1.56538" transform="matrix(0.531395 -0.847124 0.847154 0.531348 55.6953 113.773)" fill="#D1DF31"/>
<rect width="7.21955" height="77.0087" rx="1.56538" transform="matrix(0.690177 -0.723641 0.723688 0.690127 67.5078 96.751)" fill="#D1DF31"/>
<rect width="7.21974" height="77.0092" rx="1.56538" transform="matrix(0.824705 -0.565562 0.565621 0.824665 82.9492 83.7832)" fill="#D1DF31"/>
<rect width="7.2198" height="77.0086" rx="1.56538" transform="matrix(0.921796 -0.387676 0.387728 0.921774 102.094 73.3096)" fill="#D1DF31"/>
<rect width="7.21985" height="77.0081" rx="1.56538" transform="matrix(0.986872 -0.161506 0.16153 0.986867 121.945 63.7715)" fill="#D1DF31"/>
</g>
<path d="M205.164 108.252L205.173 108.261L206.614 103.469L205.49 103.87C204.943 98.8882 201.404 93.7041 195.283 89.9486C184.889 83.5754 171.087 83.7655 164.457 90.3563C164.042 90.7694 163.663 91.201 163.321 91.6511L162.817 90.6646L161.627 94.6934L161.646 94.6751C159.335 100.956 162.922 108.718 171.257 113.833C181.652 120.207 195.454 120.017 202.083 113.426C203.644 111.874 204.653 110.101 205.174 108.224L205.164 108.252Z" fill="#C08718" stroke="#C08718" stroke-width="1.06648" stroke-linecap="round" stroke-linejoin="round"/>
<path d="M180.131 112.384C192.197 116.008 204.029 112.117 206.559 103.695C209.089 95.2727 201.358 85.5077 189.291 81.8842C177.225 78.2607 165.393 82.1509 162.863 90.5732C160.334 98.9955 168.064 108.761 180.131 112.384Z" fill="#FFEB3C" stroke="#C08718" stroke-width="0.59723" stroke-linecap="round" stroke-linejoin="round"/>
<path d="M181.051 109.339C190.707 112.239 200.176 109.124 202.201 102.382C204.225 95.6398 198.039 87.8237 188.384 84.9241C178.728 82.0244 169.259 85.1393 167.234 91.8813C165.209 98.6233 171.395 106.439 181.051 109.339Z" fill="#FFEB3C" stroke="#C08718" stroke-width="0.59723" stroke-linecap="round" stroke-linejoin="round"/>
<path d="M179.9 92.8934C179.855 92.5895 179.93 92.3688 180.133 92.1852C180.327 92.0109 180.621 91.9197 180.999 91.9116C181.376 91.9035 181.79 92.0243 182.25 92.2834L188.242 95.9649C188.428 95.4315 188.356 94.8973 188.054 94.3348C187.788 93.883 187.467 93.5046 187.09 93.1813C186.714 92.858 186.309 92.5622 185.878 92.2755C185.446 91.9889 184.995 91.7206 184.527 91.4523C184.058 91.1839 183.598 90.8696 183.148 90.5277L182.698 90.2225C182.45 89.9364 182.34 89.6968 182.341 89.4942C182.342 89.2917 182.434 89.1262 182.609 89.0071C182.785 88.8879 183.006 88.8149 183.273 88.788C183.54 88.7612 183.816 88.7804 184.111 88.8549C185.599 89.7614 187.097 90.6956 188.596 91.6114C190.094 92.5455 191.702 93.5169 193.393 94.5345C193.696 94.8391 193.879 95.1159 193.925 95.383C193.979 95.6409 193.942 95.8617 193.794 96.027C193.646 96.1923 193.425 96.2837 193.102 96.3104C192.78 96.3371 192.412 96.2624 191.989 96.077L191.245 95.6238C191.262 95.9736 191.224 96.305 191.131 96.6177C191.038 96.9304 190.909 97.2247 190.733 97.5095L191.992 98.2773C192.295 98.582 192.46 98.8587 192.487 99.1257C192.513 99.3928 192.439 99.5951 192.245 99.751C192.07 99.907 191.803 99.9891 191.462 100.016C191.121 100.042 190.744 99.9584 190.312 99.7823L188.961 98.959C188.564 99.1512 188.113 99.288 187.643 99.3879C187.173 99.4878 186.658 99.5231 186.114 99.5123C185.028 99.4907 184.034 99.359 183.114 99.1354C182.194 98.9117 181.237 98.5591 180.244 98.0775C180.765 99.6901 181.276 101.293 181.759 102.888C181.786 103.228 181.711 103.486 181.499 103.679C181.286 103.871 181.056 103.972 180.761 103.989C180.476 104.016 180.163 103.96 179.832 103.812C179.501 103.664 179.216 103.433 178.987 103.11C178.613 101.903 178.23 100.705 177.865 99.5068C177.491 98.3181 177.108 97.1202 176.724 95.9223C176.698 95.6368 176.744 95.4068 176.883 95.2507C177.022 95.0946 177.197 94.9754 177.427 94.9116C177.658 94.8479 177.897 94.8301 178.182 94.8586C178.458 94.8778 178.707 94.943 178.946 95.0357C179.461 95.3318 179.985 95.6187 180.509 95.8872C181.033 96.1557 181.566 96.3966 182.118 96.6192C182.669 96.8417 183.24 97.0091 183.829 97.1397C184.418 97.2703 185.025 97.3457 185.651 97.3659C185.844 97.3757 186.065 97.3763 186.323 97.3218L180.552 93.7883C180.138 93.4833 179.918 93.1881 179.864 92.8933L179.9 92.8934Z" fill="#C08718"/>
<path d="M75.1261 152.254L74.9749 152.805C70.479 147.833 62.4873 146.09 54.0145 148.984C42.0981 153.072 33.7495 164.781 35.3783 175.138C35.4735 175.744 35.606 176.323 35.7555 176.879L35.0523 176.42L36.7813 179.521C36.9957 179.963 37.2271 180.382 37.4872 180.786L37.6443 181.061L37.6613 181.038C41.8015 187.235 50.5462 189.687 59.8905 186.48C71.8068 182.392 80.1555 170.683 78.5266 160.326C78.2028 158.266 77.4973 156.412 76.4889 154.801L75.1229 152.234L75.1261 152.254Z" fill="#C08718" stroke="#C08718" stroke-width="1.18381" stroke-linecap="round" stroke-linejoin="round"/>
<path d="M74.2343 150.887C68.3325 142.764 55.0514 142.35 44.5702 149.964C34.089 157.577 30.3767 170.335 36.2786 178.458C42.1804 186.582 55.4615 186.995 65.9427 179.382C76.4239 171.768 80.1362 159.011 74.2343 150.887Z" fill="#FFEB3C" stroke="#C08718" stroke-width="0.662933" stroke-miterlimit="10"/>
<path d="M70.4534 153.637C65.7291 147.134 55.0988 146.802 46.71 152.896C38.3212 158.99 35.3505 169.201 40.0748 175.703C44.7991 182.206 55.4294 182.538 63.8182 176.444C72.2071 170.35 75.1777 160.139 70.4534 153.637Z" fill="#FFEB3C" stroke="#C08718" stroke-width="0.662933" stroke-miterlimit="10"/>
<path d="M48.6522 165.62C48.3665 165.448 48.2158 165.213 48.1798 164.919C48.1556 164.633 48.2609 164.317 48.479 163.993C48.7087 163.677 49.0691 163.403 49.5782 163.22L56.4484 160.857C56.1055 160.321 55.6063 159.975 54.922 159.835C54.3685 159.736 53.8393 159.726 53.3228 159.797C52.8181 159.876 52.2994 159.999 51.7957 160.15C51.2834 160.314 50.7626 160.489 50.245 160.684C49.7274 160.879 49.1747 161.049 48.604 161.17L48.0599 161.328C47.6667 161.327 47.3852 161.247 47.2067 161.1C47.0283 160.952 46.9445 160.748 46.95 160.519C46.9554 160.291 47.0215 160.053 47.1682 159.802C47.315 159.552 47.5001 159.347 47.7488 159.152C49.4579 158.573 51.1754 157.983 52.9046 157.4C54.6338 156.818 56.4694 156.188 58.3995 155.502C58.85 155.472 59.2092 155.519 59.4598 155.666C59.719 155.801 59.8751 156.004 59.9334 156.243C59.9917 156.482 59.9288 156.741 59.7565 157.026C59.5842 157.312 59.2929 157.565 58.8741 157.796L58.0312 158.094C58.3467 158.324 58.6079 158.603 58.8319 158.91C59.0559 159.216 59.2311 159.54 59.3488 159.894L60.7815 159.4C61.2321 159.37 61.5827 159.429 61.8163 159.599C62.05 159.769 62.1976 159.984 62.2187 160.249C62.2397 160.515 62.1599 160.796 61.9589 161.097C61.7578 161.398 61.458 161.662 61.0477 161.882L59.497 162.415C59.4054 162.885 59.2616 163.352 59.0573 163.829C58.853 164.306 58.5615 164.755 58.218 165.202C57.531 166.097 56.8101 166.841 56.0468 167.447C55.2835 168.053 54.398 168.606 53.3669 169.089C55.0858 169.822 56.7844 170.559 58.466 171.318C58.7698 171.54 58.9556 171.8 58.983 172.106C59.0104 172.412 58.9625 172.699 58.8071 172.961C58.6518 173.224 58.4062 173.438 58.082 173.613C57.7578 173.788 57.3742 173.849 56.9545 173.811C55.6776 173.257 54.4092 172.691 53.144 172.145C51.8873 171.587 50.6104 171.033 49.3367 170.499C49.0796 170.312 48.9034 170.112 48.8567 169.881C48.8101 169.651 48.8156 169.422 48.9018 169.181C48.988 168.94 49.1295 168.721 49.3145 168.516C49.5081 168.3 49.7196 168.132 49.9375 168.004C50.5242 167.788 51.0876 167.555 51.6392 167.313C52.1908 167.071 52.7361 166.789 53.2581 166.489C53.78 166.19 54.2924 165.83 54.7782 165.433C55.2641 165.036 55.7001 164.585 56.0861 164.079C56.2169 163.924 56.3414 163.729 56.468 163.481L49.8423 165.754C49.3236 165.877 48.9273 165.856 48.6501 165.673L48.6522 165.62Z" fill="#C08718"/>
<path d="M116.153 136.672H247.146C260.523 136.672 271.393 147.533 271.393 160.919V201.373H91.9062V160.919C91.9062 147.542 102.767 136.672 116.153 136.672Z" fill="#6EDC2B"/>
<g style="mix-blend-mode:multiply" opacity="0.5">
<path d="M99.2982 171.459H89.3777C84.6257 171.459 80.7734 175.311 80.7734 180.064V207.677C80.7734 212.429 84.6257 216.282 89.3777 216.282H99.2982C104.05 216.282 107.902 212.429 107.902 207.677V180.064C107.902 175.311 104.05 171.459 99.2982 171.459Z" fill="#9BE969"/>
</g>
<path d="M96.5247 171.458H86.6043C81.8523 171.458 78 175.31 78 180.063V216.424C78 221.176 81.8523 225.028 86.6043 225.028H96.5247C101.277 225.028 105.129 221.176 105.129 216.424V180.063C105.129 175.31 101.277 171.458 96.5247 171.458Z" fill="#6EDC2B"/>
<g style="mix-blend-mode:multiply" opacity="0.5">
<path d="M274.615 171.458H264.694C259.942 171.458 256.09 175.31 256.09 180.063V209.144C256.09 213.897 259.942 217.749 264.694 217.749H274.615C279.367 217.749 283.219 213.897 283.219 209.144V180.063C283.219 175.31 279.367 171.458 274.615 171.458Z" fill="#9BE969"/>
</g>
<g style="mix-blend-mode:multiply">
<path d="M258.862 189.662H105.117V210.373H258.862V189.662Z" fill="#8BDB48"/>
</g>
<path d="M258.862 201.373H105.117V217.365H258.862V201.373Z" fill="#6EDC2B"/>
<path d="M277.396 171.458H267.475C262.723 171.458 258.871 175.31 258.871 180.063V216.424C258.871 221.176 262.723 225.028 267.475 225.028H277.396C282.148 225.028 286 221.176 286 216.424V180.063C286 175.31 282.148 171.458 277.396 171.458Z" fill="#6EDC2B"/>
<path d="M84.2639 242.033H82.8672L89.824 225.021H96.0825L84.2639 242.033Z" fill="#6F31AA"/>
<path d="M279.749 242.032H281.146L274.189 225.02H267.922L279.749 242.032Z" fill="#6F31AA"/>
<g style="mix-blend-mode:multiply">
<path d="M84.2639 242.033H82.8672L89.824 225.021H96.0825L84.2639 242.033Z" fill="#54C81E"/>
</g>
<g style="mix-blend-mode:multiply">
<path d="M279.749 242.032H281.146L274.189 225.02H267.922L279.749 242.032Z" fill="#54C81E"/>
</g>
<g style="mix-blend-mode:multiply" opacity="0.5">
<path d="M180.512 140.03V184.065" stroke="#8BDB48" stroke-width="0.701529" stroke-miterlimit="10" stroke-linecap="round"/>
</g>
<g style="mix-blend-mode:multiply" opacity="0.5">
<path d="M180.512 202.617V216.048" stroke="#8BDB48" stroke-width="0.701529" stroke-miterlimit="10" stroke-linecap="round"/>
</g>
<path d="M211.911 141.93H210.188V163.122H211.911V141.93Z" fill="white"/>
<path d="M233.364 141.929H231.641V163.121H233.364V141.929Z" fill="white"/>
<path fill-rule="evenodd" clip-rule="evenodd" d="M213.126 131.488C220.134 129.512 224.143 129.496 230.346 131.488C232.363 131.488 234.015 133.14 234.015 135.158V143.994H231.094V135.158C231.094 134.75 230.748 134.337 230.346 134.41C224.927 135.37 219.241 135.545 213.126 134.41C212.723 134.332 212.378 134.75 212.378 135.158V143.994H209.457V135.158C209.457 133.14 211.108 131.488 213.126 131.488Z" fill="#353436"/>
<path d="M200.806 160.93H242.779C248.744 160.93 253.585 165.771 253.585 171.737V226.653C253.585 232.619 248.744 237.46 242.779 237.46H200.806C194.84 237.46 190 232.619 190 226.653V171.737C190 165.771 194.84 160.93 200.806 160.93Z" fill="#7350CA"/>
<path d="M201.041 242.269C202.546 242.269 203.766 241.049 203.766 239.543C203.766 238.038 202.546 236.818 201.041 236.818C199.536 236.818 198.316 238.038 198.316 239.543C198.316 241.049 199.536 242.269 201.041 242.269Z" fill="#353436"/>
<path d="M242.225 242.27C243.729 242.27 244.949 241.05 244.949 239.544C244.949 238.039 243.729 236.819 242.225 236.819C240.72 236.819 239.5 238.039 239.5 239.544C239.5 241.05 240.72 242.27 242.225 242.27Z" fill="#353436"/>
</svg>
