<svg width="330" height="330" viewBox="0 0 330 330" fill="none" xmlns="http://www.w3.org/2000/svg">
<rect width="330" height="330" rx="165" fill="#DBFF66" fill-opacity="0.5"/>
<g opacity="0.3">
<rect x="182.449" y="87.0627" width="6.85801" height="73.1521" rx="1.42272" fill="#D1DF31"/>
<rect x="202.086" y="87.9517" width="6.85801" height="73.1521" rx="1.42272" transform="rotate(11.544 202.086 87.9517)" fill="#D1DF31"/>
<rect x="220.305" y="93.9001" width="6.85801" height="73.1521" rx="1.42272" transform="rotate(23.4585 220.305 93.9001)" fill="#D1DF31"/>
<rect x="238.395" y="103.974" width="6.85801" height="73.1521" rx="1.42272" transform="rotate(35.0902 238.395 103.974)" fill="#D1DF31"/>
<rect x="253.73" y="114.786" width="6.85801" height="73.1521" rx="1.42272" transform="rotate(44.0483 253.73 114.786)" fill="#D1DF31"/>
<rect x="267.227" y="129.105" width="6.85801" height="73.1521" rx="1.42272" transform="rotate(55.5923 267.227 129.105)" fill="#D1DF31"/>
<rect x="276.207" y="145.992" width="6.858" height="73.1521" rx="1.42272" transform="rotate(67.5068 276.207 145.992)" fill="#D1DF31"/>
<rect x="282.18" y="165.913" width="6.85801" height="73.1521" rx="1.42272" transform="rotate(79.1386 282.18 165.913)" fill="#D1DF31"/>
<rect x="284.543" y="184.626" width="6.85801" height="73.1521" rx="1.42272" transform="rotate(89.9609 284.543 184.626)" fill="#D1DF31"/>
<rect x="283.637" y="204.301" width="6.85801" height="73.1521" rx="1.42272" transform="rotate(101.505 283.637 204.301)" fill="#D1DF31"/>
<rect x="277.754" y="222.495" width="6.858" height="73.1521" rx="1.42272" transform="rotate(113.419 277.754 222.495)" fill="#D1DF31"/>
<rect x="267.656" y="240.614" width="6.85801" height="73.1521" rx="1.42272" transform="rotate(125.051 267.656 240.614)" fill="#D1DF31"/>
<rect x="258.027" y="256.143" width="6.85801" height="73.1521" rx="1.42272" transform="rotate(135.203 258.027 256.143)" fill="#D1DF31"/>
<rect x="243.422" y="269.35" width="6.85801" height="73.1521" rx="1.42272" transform="rotate(146.747 243.422 269.35)" fill="#D1DF31"/>
<rect x="226.359" y="277.966" width="6.85801" height="73.1521" rx="1.42272" transform="rotate(158.662 226.359 277.966)" fill="#D1DF31"/>
<rect x="206.426" y="283.545" width="6.85801" height="73.1521" rx="1.42272" transform="rotate(170.293 206.426 283.545)" fill="#D1DF31"/>
<rect x="187.906" y="286.679" width="6.85801" height="73.1521" rx="1.42272" transform="rotate(179.251 187.906 286.679)" fill="#D1DF31"/>
<rect x="168.184" y="286.038" width="6.85801" height="73.1521" rx="1.42272" transform="rotate(-169.205 168.184 286.038)" fill="#D1DF31"/>
<rect x="149.965" y="280.385" width="6.85801" height="73.1521" rx="1.42272" transform="rotate(-157.29 149.965 280.385)" fill="#D1DF31"/>
<rect x="131.746" y="270.486" width="6.85801" height="73.1521" rx="1.42272" transform="rotate(-145.658 131.746 270.486)" fill="#D1DF31"/>
<rect x="116.879" y="258.857" width="6.85801" height="73.1521" rx="1.42272" transform="rotate(-134.836 116.879 258.857)" fill="#D1DF31"/>
<rect x="103.645" y="244.245" width="6.85801" height="73.1521" rx="1.42272" transform="rotate(-123.292 103.645 244.245)" fill="#D1DF31"/>
<rect x="95.0078" y="227.211" width="6.85801" height="73.1521" rx="1.42272" transform="rotate(-111.378 95.0078 227.211)" fill="#D1DF31"/>
<rect x="89.4219" y="207.262" width="6.858" height="73.1521" rx="1.42272" transform="rotate(-99.7458 89.4219 207.262)" fill="#D1DF31"/>
<rect x="85.8984" y="192.253" width="6.85801" height="73.1521" rx="1.42272" transform="rotate(-92.2704 85.8984 192.253)" fill="#D1DF31"/>
<rect x="87.2734" y="173.169" width="6.858" height="73.1521" rx="1.42272" transform="rotate(-80.356 87.2734 173.169)" fill="#D1DF31"/>
<rect x="92.7734" y="153.224" width="6.85801" height="73.1521" rx="1.42272" transform="rotate(-68.7242 92.7734 153.224)" fill="#D1DF31"/>
<rect x="100.766" y="136.114" width="6.85801" height="73.1521" rx="1.42272" transform="rotate(-57.9018 100.766 136.114)" fill="#D1DF31"/>
<rect x="111.98" y="119.945" width="6.858" height="73.1521" rx="1.42272" transform="rotate(-46.3578 111.98 119.945)" fill="#D1DF31"/>
<rect x="126.676" y="107.626" width="6.85801" height="73.1521" rx="1.42272" transform="rotate(-34.4434 126.676 107.626)" fill="#D1DF31"/>
<rect x="144.852" y="97.6787" width="6.858" height="73.1521" rx="1.42272" transform="rotate(-22.8116 144.852 97.6787)" fill="#D1DF31"/>
<rect x="163.715" y="88.6177" width="6.858" height="73.1521" rx="1.42272" transform="rotate(-9.29502 163.715 88.6177)" fill="#D1DF31"/>
</g>
<path d="M65.3984 136.264C65.3984 119.996 78.586 106.809 94.8537 106.809H207.691C223.959 106.809 237.146 119.996 237.146 136.264V201.859C237.146 218.127 223.959 231.314 207.691 231.314H94.8537C78.586 231.314 65.3984 218.127 65.3984 201.859V136.264Z" fill="#F8D25B"/>
<path d="M94.4048 156.81C87.4028 152.125 85.5239 142.652 90.2081 135.65L130.355 75.6394C135.039 68.6374 144.512 66.7585 151.514 71.4428L187.262 95.3574C194.264 100.042 196.143 109.515 191.458 116.517L151.312 176.528C146.628 183.53 137.154 185.409 130.152 180.724L94.4048 156.81Z" fill="#649C38"/>
<path fill-rule="evenodd" clip-rule="evenodd" d="M90.206 135.647C85.5217 142.649 87.4006 152.123 94.4026 156.807L130.15 180.722C137.152 185.406 146.625 183.527 151.31 176.525L191.456 116.514C193.447 113.539 194.252 110.118 193.983 106.807H109.5L90.206 135.647Z" fill="#7AD135"/>
<path d="M82.3237 145.58C78.0071 138.345 80.3725 128.981 87.6069 124.665L167.535 76.9741C174.769 72.6576 184.133 75.0229 188.45 82.2574L219.754 134.723C224.071 141.958 221.706 151.321 214.471 155.638L134.543 203.329C127.309 207.645 117.945 205.28 113.629 198.046L82.3237 145.58Z" fill="#7AD135"/>
<path d="M93.4096 146.689C89.093 139.455 91.4584 130.091 98.6928 125.774L163.253 87.2528C170.487 82.9363 179.851 85.3016 184.168 92.5361L208.676 133.611C212.992 140.845 210.627 150.209 203.393 154.526L138.833 193.047C131.598 197.363 122.234 194.998 117.918 187.764L93.4096 146.689Z" fill="#A3EB69"/>
<path fill-rule="evenodd" clip-rule="evenodd" d="M87.6042 124.662C80.3698 128.979 78.0044 138.343 82.321 145.577L113.626 198.043C117.942 205.277 127.306 207.643 134.541 203.326L214.469 155.635C221.703 151.319 224.068 141.955 219.752 134.72L203.097 106.807H117.529L87.6042 124.662Z" fill="#649C38"/>
<mask id="mask0_4407_6807" style="mask-type:alpha" maskUnits="userSpaceOnUse" x="80" y="106" width="142" height="100">
<path fill-rule="evenodd" clip-rule="evenodd" d="M87.6042 124.662C80.3698 128.979 78.0044 138.343 82.321 145.577L113.626 198.043C117.942 205.277 127.306 207.643 134.541 203.326L214.469 155.635C221.703 151.319 224.068 141.955 219.752 134.72L203.097 106.807H117.529L87.6042 124.662Z" fill="#649C38"/>
</mask>
<g mask="url(#mask0_4407_6807)">
<path d="M93.4096 146.689C89.093 139.455 91.4584 130.091 98.6928 125.774L163.253 87.2528C170.487 82.9363 179.851 85.3016 184.168 92.5361L208.676 133.611C212.992 140.845 210.627 150.209 203.393 154.526L138.833 193.047C131.598 197.363 122.234 194.998 117.918 187.764L93.4096 146.689Z" fill="#79C041"/>
<circle cx="151.578" cy="140.151" r="23.4884" fill="#649C38"/>
</g>
<circle cx="255.234" cy="105.071" r="4.68285" fill="#D6E42F"/>
<circle cx="49.886" cy="182.502" r="4.68285" fill="#F8D25B"/>
<path d="M181.285 169.661C181.285 161.033 188.28 154.038 196.909 154.038H237.16V185.285H196.909C188.28 185.285 181.285 178.29 181.285 169.661Z" fill="#7350CA"/>
<circle cx="196.931" cy="169.659" r="8.81344" fill="#FAF2E6"/>
</svg>
