<svg width="330" height="330" viewBox="0 0 330 330" fill="none" xmlns="http://www.w3.org/2000/svg">
<rect width="330" height="330" rx="165" fill="#DBFF66" fill-opacity="0.5"/>
<path d="M221.115 190.064C221.115 220.63 196.337 245.408 165.771 245.408C135.205 245.408 110.427 220.63 110.427 190.064C110.427 159.499 135.205 134.72 165.771 134.72C196.337 134.72 221.115 159.499 221.115 190.064Z" stroke="url(#paint0_linear_4407_7058)" stroke-opacity="0.4" stroke-width="4.22933"/>
<circle cx="165.753" cy="186.993" r="83.3259" stroke="url(#paint1_linear_4407_7058)" stroke-opacity="0.4" stroke-width="4.22933"/>
<path d="M273.351 166.58C273.351 226.37 224.881 274.839 165.092 274.839C105.302 274.839 56.8324 226.37 56.8324 166.58C56.8324 106.79 105.302 58.3209 165.092 58.3209C224.881 58.3209 273.351 106.79 273.351 166.58Z" stroke="url(#paint2_linear_4407_7058)" stroke-opacity="0.4" stroke-width="3.38346"/>
<path d="M109.331 250.064C104.592 249.255 101.272 238.38 99.7701 231.003C99.3751 229.063 99.5381 227.059 100.129 225.169L119.82 162.215C121.546 156.696 126.744 153.011 132.523 153.22C152.732 153.953 182.072 155.07 188.477 155.519C192.941 155.833 198.552 157.319 203.316 158.87C208.234 160.47 211.327 165.176 211.327 170.347V191.119C210.841 201.447 212.633 208.478 214.996 213.031C217.65 218.144 221.294 223.901 220.862 229.645L220.034 240.673C219.67 245.517 216.604 249.74 212.112 251.587L190.125 260.627C187.964 261.516 185.6 261.798 183.29 261.443L109.331 250.064Z" fill="#4E66E4"/>
<path d="M109.331 250.064C104.592 249.255 101.272 238.38 99.7701 231.003C99.3751 229.063 99.5381 227.059 100.129 225.169L119.82 162.215C121.546 156.696 126.897 153.446 131.37 157.111C148.202 170.901 172.168 214.429 180.282 229.713C182.082 233.103 182.132 237.128 181.486 240.911C180.556 246.367 180.591 254.741 186.821 261.986L109.331 250.064Z" fill="#FCFCFC"/>
<path d="M99.7822 218.785L110.997 162.473C112.234 156.262 117.815 151.88 124.142 152.153L181.939 154.64C189.642 154.972 195.318 161.969 194.054 169.574L183.884 230.749C182.754 237.545 176.462 242.238 169.626 241.384L110.784 234.034C103.384 233.11 98.3257 226.098 99.7822 218.785Z" fill="#24D3FA"/>
<path d="M163.358 170.835L170.273 171.275C171.546 171.357 172.384 172.462 172.144 173.745L170.841 180.714C170.602 181.996 169.375 182.971 168.102 182.889L161.188 182.449C159.915 182.368 159.077 181.262 159.317 179.979L160.619 173.011C160.859 171.728 162.085 170.754 163.358 170.835Z" stroke="white" stroke-width="4.39383" stroke-linecap="round" stroke-linejoin="round"/>
<path d="M134.101 168.991L141.015 169.432C142.288 169.513 143.126 170.619 142.886 171.902L141.584 178.87C141.344 180.153 140.118 181.127 138.845 181.046L131.93 180.605C130.657 180.524 129.819 179.419 130.059 178.136L131.361 171.167C131.601 169.884 132.828 168.91 134.101 168.991Z" stroke="white" stroke-width="4.39383" stroke-linecap="round" stroke-linejoin="round"/>
<path d="M157.753 200.43L164.668 200.87C165.941 200.952 166.778 202.057 166.538 203.34L165.236 210.309C164.996 211.591 163.77 212.566 162.497 212.484L155.582 212.044C154.309 211.962 153.472 210.857 153.711 209.574L155.014 202.606C155.254 201.323 156.48 200.348 157.753 200.43Z" stroke="white" stroke-width="4.39383" stroke-linecap="round" stroke-linejoin="round"/>
<path d="M126.19 198.441L133.105 198.882C134.328 198.96 135.409 199.524 136.11 200.45C136.812 201.377 137.077 202.589 136.847 203.821L135.544 210.79" stroke="white" stroke-width="4.39383" stroke-linecap="round" stroke-linejoin="round"/>
<path d="M124.035 210.062L124.031 210.082" stroke="white" stroke-width="4.39383" stroke-linecap="round" stroke-linejoin="round"/>
<path d="M149.858 179.61L148.556 186.578C148.325 187.81 148.59 189.023 149.292 189.949C149.994 190.875 151.075 191.44 152.297 191.517L159.212 191.958" stroke="white" stroke-width="4.39383" stroke-linecap="round" stroke-linejoin="round"/>
<path d="M168.762 191.496L168.742 191.494" stroke="white" stroke-width="4.39383" stroke-linecap="round" stroke-linejoin="round"/>
<path d="M151.68 170.096L151.66 170.095" stroke="white" stroke-width="4.39383" stroke-linecap="round" stroke-linejoin="round"/>
<path d="M146.059 199.69L146.055 199.71" stroke="white" stroke-width="4.39383" stroke-linecap="round" stroke-linejoin="round"/>
<path d="M139.52 189.648L137.43 189.516" stroke="white" stroke-width="4.39383" stroke-linecap="round" stroke-linejoin="round"/>
<path d="M128.012 188.926L128.008 188.946" stroke="white" stroke-width="4.39383" stroke-linecap="round" stroke-linejoin="round"/>
<path d="M143.869 211.316L144.27 209.2" stroke="white" stroke-width="4.39383" stroke-linecap="round" stroke-linejoin="round"/>
<rect x="33.1445" y="118.382" width="67.7491" height="30.4539" rx="15.2269" fill="white"/>
<rect x="121.844" y="56.6292" width="88.8271" height="31.0772" rx="15.5386" fill="white"/>
<rect x="232.332" y="174.443" width="64.5177" height="28.4899" rx="14.245" fill="white"/>
<g clip-path="url(#clip0_4407_7058)">
<path d="M242.324 189.034H242.265L242.211 189.017V187.558C242.246 187.539 242.284 187.534 242.324 187.54C242.665 188.038 242.665 188.536 242.324 189.034Z" fill="#FFD88C"/>
<path d="M261.645 182.235C263.225 182.168 264.809 182.128 266.385 182.248C268.285 182.393 269.797 184.071 269.774 185.912C269.751 187.831 268.173 189.474 266.211 189.558C265.196 189.602 264.177 189.553 263.161 189.547C262.974 189.756 263.078 190.007 263.071 190.238C263.024 191.679 263.145 193.122 263.003 194.561C262.55 194.561 262.095 194.561 261.641 194.561C261.538 194.399 261.58 194.217 261.58 194.044C261.577 190.279 261.577 186.513 261.58 182.748C261.58 182.576 261.533 182.394 261.646 182.235H261.645Z" fill="#5F646A"/>
<path d="M269.992 187.501C271.06 186.171 272.456 185.705 274.081 185.867C275.599 186.018 276.794 186.662 277.294 188.188C277.439 188.634 277.483 189.095 277.484 189.558C277.488 191.039 277.468 192.519 277.497 193.998C277.506 194.457 277.381 194.606 276.897 194.591C275.956 194.563 275.956 194.591 275.914 193.387C275.311 194.116 274.653 194.639 273.756 194.79C271.941 195.097 269.686 194.033 269.768 191.75C269.817 190.368 270.993 189.253 272.589 189.143C273.578 189.074 274.576 189.022 275.518 189.455C276.02 189.684 275.854 189.257 275.835 189.084C275.665 187.509 273.593 186.688 272.141 187.628C271.845 187.819 271.538 188.329 271.352 188.28C270.875 188.153 270.463 187.793 269.989 187.503L269.992 187.501Z" fill="#5F646A"/>
<path d="M243.129 185.081C244.569 182.513 246.821 181.234 249.79 181.204C251.415 181.188 252.864 181.764 254.139 182.761C254.39 182.957 254.466 183.09 254.187 183.312C253.996 183.464 253.833 183.652 253.658 183.823C253.274 184.196 252.953 184.706 252.489 184.906C252.002 185.117 251.652 184.493 251.196 184.309C249.147 183.482 246.726 184.363 245.763 186.339C245.668 186.532 245.57 186.725 245.472 186.919C244.512 186.523 243.68 185.972 243.129 185.08V185.081Z" fill="#EE3530"/>
<path d="M277.844 186.237C277.929 186.206 277.95 186.193 277.971 186.193C279.003 186.155 279.713 186.592 280.102 187.503C280.762 189.059 281.418 190.616 282.145 192.334C282.687 191.042 283.167 189.901 283.643 188.758C283.915 188.107 284.221 187.467 284.441 186.801C284.611 186.285 284.905 186.109 285.435 186.18C285.718 186.218 286.011 186.186 286.374 186.186C285.433 188.31 284.526 190.363 283.613 192.412C282.797 194.246 281.976 196.076 281.153 197.906C281.002 198.24 279.774 198.522 279.497 198.281C279.296 198.109 279.512 197.956 279.576 197.821C280.08 196.741 280.581 195.659 281.126 194.6C281.319 194.224 281.301 193.924 281.129 193.551C280.055 191.23 279.005 188.897 277.95 186.567C277.905 186.469 277.885 186.362 277.845 186.235L277.844 186.237Z" fill="#5F646A"/>
<path d="M245.449 189.699C246.46 192.443 249.519 193.442 252.096 191.938C252.971 192.388 253.781 192.919 254.396 193.693C250.959 196.778 245.173 195.663 243.07 191.511C243.695 190.697 244.472 190.073 245.449 189.7V189.699Z" fill="#00AB4E"/>
<path d="M254.395 193.693C253.61 193.13 252.814 192.583 252.095 191.938C252.698 191.484 253.123 190.912 253.372 190.202C253.488 189.87 253.425 189.778 253.072 189.783C252.102 189.798 251.131 189.769 250.161 189.797C249.716 189.81 249.483 189.728 249.537 189.23C249.614 188.514 249.223 187.553 249.692 187.146C250.099 186.79 251.063 187.03 251.781 187.026C253.159 187.018 254.535 187.041 255.913 187.014C256.349 187.006 256.46 187.132 256.499 187.557C256.71 189.811 256.224 191.837 254.606 193.53C254.546 193.593 254.467 193.638 254.396 193.693H254.395Z" fill="#497EC0"/>
<path d="M245.453 189.699C244.659 190.303 243.867 190.907 243.074 191.511C242.641 190.738 242.388 189.912 242.328 189.032C242.328 188.534 242.328 188.036 242.328 187.538C242.403 186.661 242.593 185.818 243.127 185.082C243.837 185.781 244.685 186.313 245.47 186.921C245.11 187.845 245.161 188.771 245.453 189.701V189.699Z" fill="#FDB815"/>
<path d="M261.641 182.236C261.639 186.345 261.637 190.453 261.635 194.562C261.406 194.494 261.506 194.307 261.506 194.177C261.499 190.327 261.501 186.477 261.506 182.627C261.506 182.491 261.427 182.309 261.642 182.236H261.641Z" fill="#50565C"/>
<path d="M262.995 194.561C262.995 193.112 262.988 191.663 262.997 190.215C262.997 189.988 262.893 189.723 263.154 189.548C263.145 191.024 263.143 192.501 263.121 193.977C263.118 194.169 263.265 194.416 262.996 194.561H262.995Z" fill="#50565C"/>
<path d="M263.135 183.71C264.106 183.702 265.079 183.677 266.05 183.69C267.159 183.706 268.114 184.641 268.154 185.712C268.197 186.885 267.4 187.857 266.237 187.957C265.203 188.046 264.162 188.039 263.126 187.953C263.035 186.538 263.014 185.124 263.135 183.71Z" fill="white"/>
<path d="M263.137 183.713C263.134 185.127 263.131 186.542 263.127 187.956C262.885 187.69 263.009 187.37 263.003 187.077C262.986 186.16 262.993 185.242 263.001 184.325C263.002 184.117 262.925 183.882 263.137 183.713Z" fill="#50565C"/>
<path d="M273.331 193.458C272.847 193.433 272.4 193.312 272.01 193.017C271.253 192.445 271.245 191.52 271.994 190.934C272.89 190.235 274.65 190.163 275.647 190.763C275.912 190.922 275.927 191.113 275.89 191.374C275.742 192.418 274.499 193.438 273.331 193.456V193.458Z" fill="#FEFEFE"/>
</g>
<ellipse cx="205.387" cy="114.419" rx="5.29758" ry="5.29758" fill="#BDE930"/>
<circle cx="70.7585" cy="196.294" r="5.29758" fill="#BDE930"/>
<ellipse cx="80.6456" cy="87.0054" rx="3.55574" ry="3.55574" fill="#EDC95A"/>
<circle cx="274.454" cy="119.72" r="4.81702" fill="#E77E50"/>
<g clip-path="url(#clip1_4407_7058)">
<path d="M128.754 70.3979C129.079 69.5841 129.144 68.6951 129.5 67.8858C131.055 64.348 133.708 62.2087 137.515 61.689C142.47 61.012 146.959 63.956 148.448 68.7338C150.21 74.3893 146.662 80.4289 140.898 81.6085C140.523 81.6849 140.122 81.6302 139.773 81.8331H137.636C135.707 81.6986 134.012 80.9475 132.519 79.753C130.424 78.0764 129.104 75.9337 128.812 73.2108C128.805 73.1367 128.811 73.0603 128.754 73.0011V70.3967V70.3979Z" fill="#663795"/>
<path d="M155.51 75.4986C155.51 76.2771 155.495 77.0111 155.516 77.7451C155.528 78.1851 155.349 78.3572 154.919 78.3503C153.379 78.3264 153.541 78.527 153.539 77.0214C153.535 74.4763 153.551 71.9312 153.527 69.3861C153.523 68.8402 153.694 68.5701 154.233 68.4321C155.352 68.1449 156.471 67.9626 157.61 68.2566C158.998 68.6145 159.86 69.7326 159.894 71.1755C159.903 71.5528 159.88 71.9301 159.899 72.3062C160.032 74.9801 157.725 76.1027 155.749 75.542C155.696 75.5271 155.641 75.5214 155.511 75.4986H155.51Z" fill="#673795"/>
<path d="M189.905 73.4482C189.905 72.052 189.917 70.6558 189.899 69.2596C189.893 68.8026 190.075 68.5894 190.506 68.4629C191.433 68.1882 192.37 68.0629 193.333 68.1324C194.977 68.2509 196.103 69.3781 196.244 71.0205C196.31 71.7944 196.338 72.5729 196.188 73.332C195.853 75.0165 194.157 76.0138 192.322 75.5853C191.855 75.4759 191.836 75.6126 191.848 75.9865C191.87 76.6088 191.846 77.2311 191.858 77.8545C191.863 78.1816 191.737 78.348 191.4 78.3469C189.644 78.3401 189.923 78.5122 189.909 76.9587C189.897 75.7893 189.906 74.6188 189.906 73.4494L189.905 73.4482Z" fill="#673795"/>
<path d="M160.958 73.1748C160.958 71.7421 160.953 70.3106 160.961 68.8779C160.964 68.5029 160.84 68.0516 161.483 68.0356C162.448 68.0117 162.891 68.2362 162.925 68.8791C162.953 69.4056 162.948 69.9345 162.925 70.4611C162.909 70.8212 162.934 71.0492 163.383 70.8691C163.553 70.8018 163.749 70.7961 163.935 70.7745C165.618 70.5773 166.872 71.5313 166.98 73.2318C167.078 74.7705 167.026 76.3194 167.039 77.8649C167.041 78.1863 166.892 78.3277 166.561 78.3493C165.403 78.4245 165.067 78.1248 165.067 76.9691C165.067 75.9137 165.075 74.8582 165.065 73.8028C165.054 72.6893 164.088 72.1251 163.099 72.6255C162.854 72.7497 162.936 72.9377 162.935 73.1053C162.928 74.6314 162.916 76.1587 162.939 77.6848C162.947 78.1761 162.782 78.3619 162.293 78.3516C160.837 78.3197 160.967 78.518 160.959 77.0192C160.952 75.7381 160.958 74.4559 160.958 73.1748Z" fill="#673795"/>
<path d="M174.384 74.6436C174.384 75.1895 174.452 75.7457 174.37 76.278C174.149 77.7118 172.929 78.5484 171.199 78.5199C169.222 78.4869 168.123 77.3699 168.116 75.3822C168.114 74.8362 168.111 74.2891 168.116 73.7432C168.134 72.0142 168.954 71.0568 170.658 70.8003C171.41 70.6875 172.153 70.7502 172.857 71.0579C173.824 71.4796 174.332 72.2433 174.406 73.2896C174.438 73.7398 174.412 74.1934 174.412 74.6447C174.402 74.6447 174.393 74.6447 174.382 74.6447L174.384 74.6436Z" fill="#673795"/>
<path d="M186.57 75.2487C186.12 75.2487 185.67 75.2703 185.223 75.2419C184.867 75.2191 184.725 75.3251 184.725 75.7046C184.725 76.393 185.072 76.8033 185.753 76.8523C186.292 76.8911 186.791 76.7498 187.271 76.5252C187.584 76.3782 187.855 76.295 188.084 76.6757C188.317 77.0643 188.48 77.51 188.081 77.7949C187.058 78.5255 185.882 78.5893 184.699 78.3078C183.72 78.0742 182.967 77.4724 182.804 76.4489C182.596 75.1495 182.598 73.8263 182.836 72.5178C182.858 72.3913 182.924 72.2705 182.982 72.1531C183.567 70.986 185.041 70.4275 186.594 70.7831C187.894 71.0806 188.616 71.9821 188.655 73.3704C188.667 73.8035 188.646 74.2377 188.661 74.6708C188.674 75.0834 188.48 75.2544 188.086 75.2498C187.58 75.2441 187.076 75.2487 186.57 75.2487Z" fill="#673795"/>
<path d="M200.912 75.2448C200.406 75.2448 199.902 75.2516 199.396 75.2425C199.167 75.238 199.072 75.3189 199.04 75.5594C198.941 76.2957 199.347 76.804 200.093 76.8496C200.611 76.8803 201.101 76.7652 201.555 76.5316C201.96 76.3241 202.242 76.3447 202.468 76.7903C202.684 77.2177 202.692 77.5836 202.292 77.889C201.232 78.6983 198.839 78.6048 197.851 77.7101C197.312 77.2211 197.023 76.5988 197.011 75.866C196.997 75.018 196.995 74.17 197.011 73.322C197.034 72.0911 197.745 71.1781 198.927 70.843C199.588 70.655 200.265 70.6504 200.928 70.7895C202.154 71.0471 202.879 71.9315 202.955 73.224C202.985 73.7118 202.954 74.2042 202.97 74.6932C202.984 75.0852 202.784 75.2414 202.427 75.2437C201.921 75.2471 201.417 75.2437 200.911 75.2448H200.912Z" fill="#673795"/>
<path d="M175.621 74.7612C175.621 73.7993 175.636 72.8362 175.614 71.8742C175.605 71.465 175.76 71.261 176.147 71.1436C176.998 70.8883 177.857 70.7367 178.745 70.7584C180.535 70.8006 181.625 71.8389 181.684 73.6386C181.729 75.0143 181.687 76.3934 181.696 77.7702C181.7 78.1794 181.526 78.3355 181.124 78.348C179.959 78.3857 179.703 78.1486 179.703 76.9655C179.703 75.8896 179.716 74.8148 179.698 73.7389C179.68 72.6584 178.682 72.0703 177.717 72.5421C177.47 72.6629 177.574 72.8658 177.573 73.0299C177.564 74.539 177.569 76.0492 177.568 77.5582C177.568 78.2306 177.497 78.299 176.829 78.3059C175.415 78.3207 175.628 78.3036 175.621 77.0795C175.617 76.3056 175.621 75.5328 175.621 74.7589V74.7612Z" fill="#673795"/>
<path d="M139.218 68.3759C138.1 67.3079 137.108 66.3619 136.121 65.4114C135.677 64.984 135.707 64.8517 136.273 64.6637C136.432 64.6101 136.6 64.5793 136.754 64.5155C137.439 64.2329 137.959 64.4186 138.429 64.9908C139.241 65.9767 140.109 66.9159 140.931 67.8938C141.206 68.2209 141.493 68.4124 141.933 68.3519C142.172 68.3189 142.42 68.336 142.662 68.3531C143.271 68.3975 143.689 69.2717 143.342 69.7778C143.187 70.0023 142.937 69.9294 142.72 69.9328C141.817 69.943 141.817 69.9408 141.817 70.8617C141.817 73.1241 141.803 75.3865 141.828 77.6489C141.833 78.1972 141.654 78.3716 141.116 78.3556C140.031 78.3248 139.791 78.1128 139.786 77.0358C139.784 76.622 139.929 76.0784 139.724 75.8299C139.5 75.5575 138.991 75.9051 138.599 75.9359C136.727 76.0818 135.451 74.9637 135.382 73.0819C135.351 72.2533 135.34 71.4225 135.375 70.5938C135.394 70.1163 135.295 69.9214 134.77 69.9522C134.081 69.9921 133.852 69.6934 133.815 69.0096C133.787 68.4933 134.001 68.3622 134.475 68.369C135.879 68.3907 137.283 68.377 138.688 68.377C138.811 68.377 138.934 68.377 139.216 68.377L139.218 68.3759Z" fill="white"/>
<path d="M157.947 71.9869C157.928 72.249 157.925 72.5135 157.887 72.7722C157.749 73.7068 156.569 74.2641 155.756 73.7968C155.572 73.6908 155.559 73.5461 155.559 73.3728C155.559 72.3379 155.568 71.3019 155.555 70.267C155.55 69.965 155.706 69.8829 155.954 69.8373C157.09 69.6276 157.746 70.0938 157.908 71.254C157.942 71.4934 157.913 71.7418 157.913 71.9858H157.947V71.9869Z" fill="#FEFDFE"/>
<path d="M191.918 71.869C191.918 71.3413 191.937 70.8136 191.911 70.287C191.894 69.9474 192.086 69.8756 192.345 69.83C193.512 69.6271 194.206 70.1731 194.29 71.3926C194.318 71.804 194.311 72.2223 194.277 72.6349C194.196 73.6482 193.042 74.2602 192.136 73.8009C191.916 73.6892 191.916 73.5285 191.916 73.3382C191.917 72.8481 191.916 72.3591 191.916 71.869H191.918Z" fill="white"/>
<path d="M172.468 74.6546C172.468 75.0865 172.519 75.5219 172.422 75.9505C172.294 76.5112 171.917 76.7643 171.241 76.7369C170.662 76.7141 170.295 76.4212 170.243 75.8787C170.163 75.033 170.164 74.1839 170.243 73.3382C170.295 72.7899 170.65 72.4868 171.222 72.4492C171.845 72.4081 172.279 72.6976 172.408 73.2458C172.434 73.3553 172.462 73.4681 172.465 73.5798C172.471 73.9377 172.467 74.2956 172.467 74.6534L172.468 74.6546Z" fill="#FEFEFE"/>
<path d="M185.807 74.0412C185.714 74.0412 185.614 74.0617 185.528 74.0378C185.266 73.9671 184.85 74.2487 184.758 73.8577C184.659 73.4315 184.676 72.9516 185.059 72.6006C185.415 72.2746 186.061 72.2495 186.462 72.5538C186.777 72.7921 186.994 73.5557 186.859 73.8988C186.804 74.039 186.7 74.0378 186.591 74.039C186.33 74.0424 186.067 74.0401 185.806 74.0412H185.807Z" fill="#FDFDFE"/>
<path d="M200.06 74.0411C199.985 74.0411 199.908 74.0559 199.837 74.0388C199.571 73.975 199.152 74.2314 199.057 73.8804C198.939 73.4404 198.968 72.9378 199.367 72.5811C199.706 72.2779 200.337 72.2608 200.722 72.5298C201.069 72.7725 201.299 73.5259 201.16 73.9043C201.106 74.0525 201.002 74.0377 200.897 74.0388C200.617 74.0422 200.339 74.0399 200.06 74.0411Z" fill="#FDFDFE"/>
<path d="M139.782 71.9586C139.782 72.5045 139.772 73.0516 139.787 73.5976C139.794 73.8688 139.708 74.001 139.43 74.0603C137.815 74.4022 137.296 73.8016 137.309 72.484C137.315 71.7876 137.32 71.0901 137.305 70.3937C137.298 70.0974 137.355 69.9412 137.701 69.956C138.28 69.9811 138.861 69.9754 139.44 69.9583C139.718 69.9503 139.794 70.0598 139.787 70.3208C139.772 70.8667 139.782 71.4127 139.782 71.9597V71.9586Z" fill="#673795"/>
</g>
<g clip-path="url(#clip2_4407_7058)">
<path d="M71.7589 140.107C71.6893 140.073 71.614 140.054 71.5511 140.005C71.4433 139.921 71.385 139.812 71.3771 139.676C71.3737 139.627 71.376 139.577 71.376 139.528C71.376 136.654 71.376 133.779 71.376 130.905C71.376 130.75 71.3939 130.771 71.2401 130.77C70.8875 130.77 70.5349 130.77 70.1823 130.77C69.8713 130.77 69.6815 130.575 69.6804 130.258C69.6804 129.603 69.6894 128.949 69.6759 128.294C69.6692 127.961 69.8926 127.734 70.2205 127.744C70.6708 127.759 71.1054 127.665 71.5175 127.473C71.9228 127.283 72.2327 126.979 72.4955 126.619C72.6662 126.385 72.8222 126.14 73.0086 125.917C73.204 125.685 73.4331 125.501 73.7239 125.407C74.0035 125.316 74.2696 125.511 74.2708 125.813C74.273 126.422 74.273 127.031 74.2696 127.639C74.2696 127.729 74.2943 127.75 74.3797 127.749C74.7233 127.744 75.0669 127.747 75.4105 127.747C75.7036 127.747 75.8978 127.945 75.8989 128.243C75.8989 128.916 75.8989 129.59 75.8989 130.263C75.8989 130.572 75.7058 130.767 75.4004 130.769C75.0691 130.769 74.7379 130.772 74.4066 130.766C74.3157 130.765 74.2921 130.788 74.2921 130.882C74.2943 133.425 74.2943 135.967 74.2943 138.51C74.2943 138.87 74.2943 139.229 74.2943 139.589C74.2943 139.864 74.1955 140.003 73.9418 140.087C73.9316 140.09 73.9227 140.099 73.9137 140.105H71.7622L71.7589 140.107Z" fill="#02C3F3"/>
<path d="M79.9504 128.389C80.1559 128.216 80.3546 128.077 80.5702 127.966C81.7492 127.357 83.1787 127.582 84.1208 128.527C84.1735 128.579 84.2016 128.582 84.2566 128.527C84.753 128.031 85.3458 127.731 86.0375 127.655C87.1054 127.537 88.0116 127.88 88.728 128.696C89.1648 129.194 89.4253 129.78 89.4623 130.459C89.4691 130.587 89.4747 130.717 89.4747 130.845C89.4747 133.732 89.4747 136.619 89.4747 139.506C89.4747 139.777 89.3332 139.96 89.0884 140.006C89.0502 140.013 89.0109 140.013 88.9716 140.013C88.3271 140.013 87.6814 140.013 87.0369 140.013C86.6955 140.013 86.5148 139.827 86.5136 139.477C86.5136 138.809 86.5136 138.143 86.5125 137.475C86.5125 135.478 86.5103 133.479 86.5091 131.481C86.5091 130.982 86.1947 130.66 85.7074 130.662C85.5693 130.662 85.4312 130.647 85.2931 130.68C84.9629 130.762 84.7327 131.031 84.7159 131.372C84.6946 131.817 84.7002 132.263 84.7125 132.708C84.7125 132.73 84.7125 132.752 84.7125 132.772C84.7125 135.017 84.7125 137.261 84.7125 139.505C84.7125 139.779 84.5901 139.957 84.3622 140.02C84.3173 140.033 84.2724 140.032 84.2274 140.032C83.5672 140.032 82.9081 140.032 82.2478 140.032C81.9413 140.032 81.7526 139.84 81.7526 139.526C81.7515 136.851 81.7504 134.177 81.7492 131.501C81.7492 131.25 81.6796 131.03 81.4899 130.859C81.3922 130.772 81.281 130.712 81.1552 130.688C80.9498 130.649 80.7409 130.644 80.5365 130.691C80.184 130.771 79.9583 131.061 79.9459 131.432C79.9448 131.477 79.9459 131.523 79.9459 131.57C79.9459 134.221 79.9437 136.871 79.9504 139.52C79.9504 139.791 79.7472 140.013 79.4687 140.012C78.8084 140.008 78.1493 140.012 77.489 140.011C77.1904 140.011 76.9972 139.815 76.9972 139.509C76.9972 135.746 76.9972 131.983 76.9961 128.219C76.9961 127.928 77.2061 127.716 77.4801 127.719C78.1459 127.73 78.8118 127.728 79.4777 127.719C79.7629 127.715 79.9717 127.955 79.9481 128.207C79.9437 128.257 79.9481 128.309 79.9481 128.387L79.9504 128.389Z" fill="#02C3F3"/>
<path d="M59.7012 134.768C59.7012 136.096 59.6866 137.424 59.7068 138.752C59.718 139.461 59.1645 139.991 58.493 139.993C57.4801 139.996 56.4684 139.996 55.4556 139.993C55.1277 139.993 54.7987 140.005 54.4708 139.98C53.0998 139.872 52.1195 138.966 51.9421 137.57C51.9208 137.405 51.9107 137.24 51.9107 137.073C51.9107 136.28 51.9095 135.487 51.9107 134.694C51.9118 133.999 52.0993 133.367 52.5406 132.827C52.974 132.297 53.5366 131.988 54.1912 131.842C54.4877 131.775 54.7875 131.758 55.0884 131.759C55.4713 131.759 55.8542 131.759 56.236 131.759C56.5122 131.759 56.7009 131.569 56.7009 131.285C56.7009 131.181 56.7143 131.077 56.6874 130.973C56.629 130.756 56.4583 130.62 56.2382 130.62C55.377 130.62 54.5146 130.62 53.6534 130.62C53.559 130.62 53.467 130.613 53.3805 130.572C53.2076 130.488 53.1065 130.35 53.1054 130.152C53.102 129.501 53.102 128.848 53.1054 128.197C53.1054 127.97 53.2862 127.783 53.5085 127.765C53.5355 127.762 53.5624 127.761 53.5894 127.761C54.5809 127.761 55.5724 127.758 56.5639 127.766C57.15 127.77 57.7204 127.866 58.2549 128.128C58.9534 128.472 59.3756 129.045 59.5732 129.8C59.6619 130.141 59.7012 130.488 59.7012 130.839C59.7012 132.149 59.7012 133.459 59.7012 134.768ZM56.7323 135.919C56.7323 135.646 56.7323 135.372 56.7323 135.099C56.7323 134.774 56.5403 134.575 56.2236 134.573C55.9553 134.573 55.688 134.573 55.4197 134.573C55.1064 134.575 54.911 134.773 54.911 135.089C54.911 135.651 54.911 136.213 54.911 136.775C54.911 137.075 55.1086 137.28 55.4006 137.282C55.6802 137.285 55.9609 137.285 56.2405 137.282C56.5324 137.28 56.7312 137.073 56.7312 136.775C56.7312 136.49 56.7312 136.204 56.7312 135.919H56.7323Z" fill="#23346A"/>
<path d="M68.5096 132.673C68.5096 134.093 68.5096 135.514 68.5096 136.933C68.5096 137.538 68.3883 138.11 68.0806 138.632C67.6472 139.365 67.0071 139.801 66.1942 139.982C65.9494 140.037 65.7001 140.057 65.4497 140.057C64.3594 140.057 63.2679 140.057 62.1776 140.057C61.8643 140.057 61.6779 139.866 61.6779 139.547C61.6779 138.883 61.6779 138.219 61.6779 137.555C61.6779 137.229 61.861 137.039 62.181 137.038C63.1422 137.034 64.1034 137.033 65.0646 137.031C65.3689 137.031 65.5878 136.818 65.5822 136.528C65.5777 136.271 65.3722 136.061 65.1207 136.056C64.5907 136.045 64.0596 136.072 63.5307 136.037C62.1956 135.946 61.1266 135.061 60.8436 133.695C60.7909 133.441 60.7695 133.185 60.7695 132.926C60.7695 131.374 60.7695 129.822 60.7695 128.269C60.7695 127.941 60.9514 127.758 61.2748 127.758C61.9171 127.758 62.5583 127.766 63.2006 127.754C63.4903 127.749 63.7294 127.939 63.7283 128.288C63.7238 129.683 63.7373 131.079 63.7306 132.475C63.7294 132.819 63.963 133.048 64.2797 133.033C64.5267 133.022 64.7737 133.031 65.0208 133.031C65.3543 133.031 65.5496 132.834 65.5496 132.494C65.5496 131.086 65.5496 129.679 65.5496 128.27C65.5496 127.997 65.6922 127.809 65.9303 127.765C65.9651 127.758 66.0022 127.758 66.0381 127.758C66.6983 127.758 67.3575 127.758 68.0177 127.758C68.3187 127.758 68.5084 127.952 68.5084 128.259C68.5084 129.731 68.5084 131.204 68.5084 132.676L68.5096 132.673Z" fill="#23346A"/>
<path d="M43.4838 133.891C43.4838 132.022 43.4883 130.152 43.4805 128.283C43.4794 127.95 43.7017 127.752 44.0004 127.754C45.5005 127.763 47.0018 127.745 48.502 127.764C49.4205 127.776 50.1874 128.141 50.7208 128.932C51.0184 129.373 51.1745 129.87 51.1834 130.402C51.2036 131.524 51.2216 132.648 51.1801 133.768C51.1307 135.131 50.2458 136.137 48.9613 136.357C48.758 136.391 48.5548 136.406 48.3493 136.406C47.7497 136.406 47.15 136.407 46.5504 136.405C46.4718 136.405 46.446 136.42 46.446 136.507C46.446 137.518 46.4426 138.53 46.4381 139.541C46.4381 139.799 46.309 139.982 46.0878 140.033C46.0361 140.046 45.98 140.045 45.9261 140.045C45.2726 140.045 44.618 140.045 43.9644 140.045C43.659 140.045 43.4827 139.866 43.4827 139.553C43.4827 137.665 43.4827 135.777 43.4827 133.89L43.4838 133.891ZM46.4494 132.083C46.4494 132.489 46.4494 132.894 46.4494 133.3C46.4494 133.356 46.4584 133.381 46.5224 133.379C46.9255 133.376 47.3297 133.379 47.7328 133.375C48.0326 133.371 48.2269 133.166 48.228 132.861C48.2291 132.341 48.2291 131.823 48.228 131.304C48.228 130.994 48.0293 130.791 47.725 130.79C47.3275 130.788 46.93 130.791 46.5325 130.788C46.4606 130.788 46.4494 130.81 46.4505 130.876C46.4539 131.278 46.4516 131.681 46.4516 132.083H46.4494Z" fill="#23346A"/>
</g>
<defs>
<linearGradient id="paint0_linear_4407_7058" x1="165.771" y1="132.606" x2="165.771" y2="247.523" gradientUnits="userSpaceOnUse">
<stop stop-color="#81BE56"/>
<stop offset="1" stop-color="#81BE56" stop-opacity="0"/>
</linearGradient>
<linearGradient id="paint1_linear_4407_7058" x1="165.753" y1="101.552" x2="165.753" y2="272.433" gradientUnits="userSpaceOnUse">
<stop stop-color="#81BE56"/>
<stop offset="1" stop-color="#81BE56" stop-opacity="0"/>
</linearGradient>
<linearGradient id="paint2_linear_4407_7058" x1="165.092" y1="56.6292" x2="163.006" y2="246.955" gradientUnits="userSpaceOnUse">
<stop stop-color="#81BE56"/>
<stop offset="1" stop-color="#81BE56" stop-opacity="0"/>
</linearGradient>
<clipPath id="clip0_4407_7058">
<rect width="44.1621" height="17.1741" fill="white" transform="translate(242.211 181.205)"/>
</clipPath>
<clipPath id="clip1_4407_7058">
<rect width="74.2168" height="20.241" fill="white" transform="translate(128.754 61.5906)"/>
</clipPath>
<clipPath id="clip2_4407_7058">
<rect width="46.0022" height="14.7207" fill="white" transform="translate(43.5 125.382)"/>
</clipPath>
</defs>
</svg>
